<?xml version="1.0" encoding="utf-8" standalone="no"?>
<!DOCTYPE svg PUBLIC "-//W3C//DTD SVG 1.1//EN"
  "http://www.w3.org/Graphics/SVG/1.1/DTD/svg11.dtd">
<!-- Created with matplotlib (https://matplotlib.org/) -->
<svg height="345.6pt" version="1.1" viewBox="0 0 460.8 345.6" width="460.8pt" xmlns="http://www.w3.org/2000/svg" xmlns:xlink="http://www.w3.org/1999/xlink">
 <defs>
  <style type="text/css">
*{stroke-linecap:butt;stroke-linejoin:round;}
  </style>
 </defs>
 <g id="figure_1">
  <g id="patch_1">
   <path d="M 0 345.6 
L 460.8 345.6 
L 460.8 0 
L 0 0 
z
" style="fill:#ffffff;"/>
  </g>
  <g id="axes_1">
   <g id="patch_2">
    <path d="M 57.6 307.584 
L 414.72 307.584 
L 414.72 41.472 
L 57.6 41.472 
z
" style="fill:#ffffff;"/>
   </g>
   <g id="matplotlib.axis_1">
    <g id="xtick_1">
     <g id="line2d_1">
      <path clip-path="url(#p5a5157184f)" d="M 73.832727 307.584 
L 73.832727 41.472 
" style="fill:none;stroke:#b0b0b0;stroke-dasharray:0.8,1.32;stroke-dashoffset:0;stroke-width:0.8;"/>
     </g>
     <g id="line2d_2">
      <defs>
       <path d="M 0 0 
L 0 3.5 
" id="m9a4de1085c" style="stroke:#000000;stroke-width:0.8;"/>
      </defs>
      <g>
       <use style="stroke:#000000;stroke-width:0.8;" x="73.832727" xlink:href="#m9a4de1085c" y="307.584"/>
      </g>
     </g>
     <g id="text_1">
      <!-- 0 -->
      <defs>
       <path d="M 31.78125 66.40625 
Q 24.171875 66.40625 20.328125 58.90625 
Q 16.5 51.421875 16.5 36.375 
Q 16.5 21.390625 20.328125 13.890625 
Q 24.171875 6.390625 31.78125 6.390625 
Q 39.453125 6.390625 43.28125 13.890625 
Q 47.125 21.390625 47.125 36.375 
Q 47.125 51.421875 43.28125 58.90625 
Q 39.453125 66.40625 31.78125 66.40625 
z
M 31.78125 74.21875 
Q 44.046875 74.21875 50.515625 64.515625 
Q 56.984375 54.828125 56.984375 36.375 
Q 56.984375 17.96875 50.515625 8.265625 
Q 44.046875 -1.421875 31.78125 -1.421875 
Q 19.53125 -1.421875 13.0625 8.265625 
Q 6.59375 17.96875 6.59375 36.375 
Q 6.59375 54.828125 13.0625 64.515625 
Q 19.53125 74.21875 31.78125 74.21875 
z
" id="DejaVuSans-48"/>
      </defs>
      <g transform="translate(69.378977 325.221812)scale(0.14 -0.14)">
       <use xlink:href="#DejaVuSans-48"/>
      </g>
     </g>
    </g>
    <g id="xtick_2">
     <g id="line2d_3">
      <path clip-path="url(#p5a5157184f)" d="M 129.899713 307.584 
L 129.899713 41.472 
" style="fill:none;stroke:#b0b0b0;stroke-dasharray:0.8,1.32;stroke-dashoffset:0;stroke-width:0.8;"/>
     </g>
     <g id="line2d_4">
      <g>
       <use style="stroke:#000000;stroke-width:0.8;" x="129.899713" xlink:href="#m9a4de1085c" y="307.584"/>
      </g>
     </g>
     <g id="text_2">
      <!-- 5 -->
      <defs>
       <path d="M 10.796875 72.90625 
L 49.515625 72.90625 
L 49.515625 64.59375 
L 19.828125 64.59375 
L 19.828125 46.734375 
Q 21.96875 47.46875 24.109375 47.828125 
Q 26.265625 48.1875 28.421875 48.1875 
Q 40.625 48.1875 47.75 41.5 
Q 54.890625 34.8125 54.890625 23.390625 
Q 54.890625 11.625 47.5625 5.09375 
Q 40.234375 -1.421875 26.90625 -1.421875 
Q 22.3125 -1.421875 17.546875 -0.640625 
Q 12.796875 0.140625 7.71875 1.703125 
L 7.71875 11.625 
Q 12.109375 9.234375 16.796875 8.0625 
Q 21.484375 6.890625 26.703125 6.890625 
Q 35.15625 6.890625 40.078125 11.328125 
Q 45.015625 15.765625 45.015625 23.390625 
Q 45.015625 31 40.078125 35.4375 
Q 35.15625 39.890625 26.703125 39.890625 
Q 22.75 39.890625 18.8125 39.015625 
Q 14.890625 38.140625 10.796875 36.28125 
z
" id="DejaVuSans-53"/>
      </defs>
      <g transform="translate(125.445963 325.221812)scale(0.14 -0.14)">
       <use xlink:href="#DejaVuSans-53"/>
      </g>
     </g>
    </g>
    <g id="xtick_3">
     <g id="line2d_5">
      <path clip-path="url(#p5a5157184f)" d="M 185.966699 307.584 
L 185.966699 41.472 
" style="fill:none;stroke:#b0b0b0;stroke-dasharray:0.8,1.32;stroke-dashoffset:0;stroke-width:0.8;"/>
     </g>
     <g id="line2d_6">
      <g>
       <use style="stroke:#000000;stroke-width:0.8;" x="185.966699" xlink:href="#m9a4de1085c" y="307.584"/>
      </g>
     </g>
     <g id="text_3">
      <!-- 10 -->
      <defs>
       <path d="M 12.40625 8.296875 
L 28.515625 8.296875 
L 28.515625 63.921875 
L 10.984375 60.40625 
L 10.984375 69.390625 
L 28.421875 72.90625 
L 38.28125 72.90625 
L 38.28125 8.296875 
L 54.390625 8.296875 
L 54.390625 0 
L 12.40625 0 
z
" id="DejaVuSans-49"/>
      </defs>
      <g transform="translate(177.059199 325.221812)scale(0.14 -0.14)">
       <use xlink:href="#DejaVuSans-49"/>
       <use x="63.623047" xlink:href="#DejaVuSans-48"/>
      </g>
     </g>
    </g>
    <g id="xtick_4">
     <g id="line2d_7">
      <path clip-path="url(#p5a5157184f)" d="M 242.033684 307.584 
L 242.033684 41.472 
" style="fill:none;stroke:#b0b0b0;stroke-dasharray:0.8,1.32;stroke-dashoffset:0;stroke-width:0.8;"/>
     </g>
     <g id="line2d_8">
      <g>
       <use style="stroke:#000000;stroke-width:0.8;" x="242.033684" xlink:href="#m9a4de1085c" y="307.584"/>
      </g>
     </g>
     <g id="text_4">
      <!-- 15 -->
      <g transform="translate(233.126184 325.221812)scale(0.14 -0.14)">
       <use xlink:href="#DejaVuSans-49"/>
       <use x="63.623047" xlink:href="#DejaVuSans-53"/>
      </g>
     </g>
    </g>
    <g id="xtick_5">
     <g id="line2d_9">
      <path clip-path="url(#p5a5157184f)" d="M 298.10067 307.584 
L 298.10067 41.472 
" style="fill:none;stroke:#b0b0b0;stroke-dasharray:0.8,1.32;stroke-dashoffset:0;stroke-width:0.8;"/>
     </g>
     <g id="line2d_10">
      <g>
       <use style="stroke:#000000;stroke-width:0.8;" x="298.10067" xlink:href="#m9a4de1085c" y="307.584"/>
      </g>
     </g>
     <g id="text_5">
      <!-- 20 -->
      <defs>
       <path d="M 19.1875 8.296875 
L 53.609375 8.296875 
L 53.609375 0 
L 7.328125 0 
L 7.328125 8.296875 
Q 12.9375 14.109375 22.625 23.890625 
Q 32.328125 33.6875 34.8125 36.53125 
Q 39.546875 41.84375 41.421875 45.53125 
Q 43.3125 49.21875 43.3125 52.78125 
Q 43.3125 58.59375 39.234375 62.25 
Q 35.15625 65.921875 28.609375 65.921875 
Q 23.96875 65.921875 18.8125 64.3125 
Q 13.671875 62.703125 7.8125 59.421875 
L 7.8125 69.390625 
Q 13.765625 71.78125 18.9375 73 
Q 24.125 74.21875 28.421875 74.21875 
Q 39.75 74.21875 46.484375 68.546875 
Q 53.21875 62.890625 53.21875 53.421875 
Q 53.21875 48.921875 51.53125 44.890625 
Q 49.859375 40.875 45.40625 35.40625 
Q 44.1875 33.984375 37.640625 27.21875 
Q 31.109375 20.453125 19.1875 8.296875 
z
" id="DejaVuSans-50"/>
      </defs>
      <g transform="translate(289.19317 325.221812)scale(0.14 -0.14)">
       <use xlink:href="#DejaVuSans-50"/>
       <use x="63.623047" xlink:href="#DejaVuSans-48"/>
      </g>
     </g>
    </g>
    <g id="xtick_6">
     <g id="line2d_11">
      <path clip-path="url(#p5a5157184f)" d="M 354.167656 307.584 
L 354.167656 41.472 
" style="fill:none;stroke:#b0b0b0;stroke-dasharray:0.8,1.32;stroke-dashoffset:0;stroke-width:0.8;"/>
     </g>
     <g id="line2d_12">
      <g>
       <use style="stroke:#000000;stroke-width:0.8;" x="354.167656" xlink:href="#m9a4de1085c" y="307.584"/>
      </g>
     </g>
     <g id="text_6">
      <!-- 25 -->
      <g transform="translate(345.260156 325.221812)scale(0.14 -0.14)">
       <use xlink:href="#DejaVuSans-50"/>
       <use x="63.623047" xlink:href="#DejaVuSans-53"/>
      </g>
     </g>
    </g>
    <g id="xtick_7">
     <g id="line2d_13">
      <path clip-path="url(#p5a5157184f)" d="M 410.234641 307.584 
L 410.234641 41.472 
" style="fill:none;stroke:#b0b0b0;stroke-dasharray:0.8,1.32;stroke-dashoffset:0;stroke-width:0.8;"/>
     </g>
     <g id="line2d_14">
      <g>
       <use style="stroke:#000000;stroke-width:0.8;" x="410.234641" xlink:href="#m9a4de1085c" y="307.584"/>
      </g>
     </g>
     <g id="text_7">
      <!-- 30 -->
      <defs>
       <path d="M 40.578125 39.3125 
Q 47.65625 37.796875 51.625 33 
Q 55.609375 28.21875 55.609375 21.1875 
Q 55.609375 10.40625 48.1875 4.484375 
Q 40.765625 -1.421875 27.09375 -1.421875 
Q 22.515625 -1.421875 17.65625 -0.515625 
Q 12.796875 0.390625 7.625 2.203125 
L 7.625 11.71875 
Q 11.71875 9.328125 16.59375 8.109375 
Q 21.484375 6.890625 26.8125 6.890625 
Q 36.078125 6.890625 40.9375 10.546875 
Q 45.796875 14.203125 45.796875 21.1875 
Q 45.796875 27.640625 41.28125 31.265625 
Q 36.765625 34.90625 28.71875 34.90625 
L 20.21875 34.90625 
L 20.21875 43.015625 
L 29.109375 43.015625 
Q 36.375 43.015625 40.234375 45.921875 
Q 44.09375 48.828125 44.09375 54.296875 
Q 44.09375 59.90625 40.109375 62.90625 
Q 36.140625 65.921875 28.71875 65.921875 
Q 24.65625 65.921875 20.015625 65.03125 
Q 15.375 64.15625 9.8125 62.3125 
L 9.8125 71.09375 
Q 15.4375 72.65625 20.34375 73.4375 
Q 25.25 74.21875 29.59375 74.21875 
Q 40.828125 74.21875 47.359375 69.109375 
Q 53.90625 64.015625 53.90625 55.328125 
Q 53.90625 49.265625 50.4375 45.09375 
Q 46.96875 40.921875 40.578125 39.3125 
z
" id="DejaVuSans-51"/>
      </defs>
      <g transform="translate(401.327141 325.221812)scale(0.14 -0.14)">
       <use xlink:href="#DejaVuSans-51"/>
       <use x="63.623047" xlink:href="#DejaVuSans-48"/>
      </g>
     </g>
    </g>
    <g id="text_8">
     <!-- NN-Mass -->
     <defs>
      <path d="M 9.8125 72.90625 
L 23.09375 72.90625 
L 55.421875 11.921875 
L 55.421875 72.90625 
L 64.984375 72.90625 
L 64.984375 0 
L 51.703125 0 
L 19.390625 60.984375 
L 19.390625 0 
L 9.8125 0 
z
" id="DejaVuSans-78"/>
      <path d="M 4.890625 31.390625 
L 31.203125 31.390625 
L 31.203125 23.390625 
L 4.890625 23.390625 
z
" id="DejaVuSans-45"/>
      <path d="M 9.8125 72.90625 
L 24.515625 72.90625 
L 43.109375 23.296875 
L 61.8125 72.90625 
L 76.515625 72.90625 
L 76.515625 0 
L 66.890625 0 
L 66.890625 64.015625 
L 48.09375 14.015625 
L 38.1875 14.015625 
L 19.390625 64.015625 
L 19.390625 0 
L 9.8125 0 
z
" id="DejaVuSans-77"/>
      <path d="M 34.28125 27.484375 
Q 23.390625 27.484375 19.1875 25 
Q 14.984375 22.515625 14.984375 16.5 
Q 14.984375 11.71875 18.140625 8.90625 
Q 21.296875 6.109375 26.703125 6.109375 
Q 34.1875 6.109375 38.703125 11.40625 
Q 43.21875 16.703125 43.21875 25.484375 
L 43.21875 27.484375 
z
M 52.203125 31.203125 
L 52.203125 0 
L 43.21875 0 
L 43.21875 8.296875 
Q 40.140625 3.328125 35.546875 0.953125 
Q 30.953125 -1.421875 24.3125 -1.421875 
Q 15.921875 -1.421875 10.953125 3.296875 
Q 6 8.015625 6 15.921875 
Q 6 25.140625 12.171875 29.828125 
Q 18.359375 34.515625 30.609375 34.515625 
L 43.21875 34.515625 
L 43.21875 35.40625 
Q 43.21875 41.609375 39.140625 45 
Q 35.0625 48.390625 27.6875 48.390625 
Q 23 48.390625 18.546875 47.265625 
Q 14.109375 46.140625 10.015625 43.890625 
L 10.015625 52.203125 
Q 14.9375 54.109375 19.578125 55.046875 
Q 24.21875 56 28.609375 56 
Q 40.484375 56 46.34375 49.84375 
Q 52.203125 43.703125 52.203125 31.203125 
z
" id="DejaVuSans-97"/>
      <path d="M 44.28125 53.078125 
L 44.28125 44.578125 
Q 40.484375 46.53125 36.375 47.5 
Q 32.28125 48.484375 27.875 48.484375 
Q 21.1875 48.484375 17.84375 46.4375 
Q 14.5 44.390625 14.5 40.28125 
Q 14.5 37.15625 16.890625 35.375 
Q 19.28125 33.59375 26.515625 31.984375 
L 29.59375 31.296875 
Q 39.15625 29.25 43.1875 25.515625 
Q 47.21875 21.78125 47.21875 15.09375 
Q 47.21875 7.46875 41.1875 3.015625 
Q 35.15625 -1.421875 24.609375 -1.421875 
Q 20.21875 -1.421875 15.453125 -0.5625 
Q 10.6875 0.296875 5.421875 2 
L 5.421875 11.28125 
Q 10.40625 8.6875 15.234375 7.390625 
Q 20.0625 6.109375 24.8125 6.109375 
Q 31.15625 6.109375 34.5625 8.28125 
Q 37.984375 10.453125 37.984375 14.40625 
Q 37.984375 18.0625 35.515625 20.015625 
Q 33.0625 21.96875 24.703125 23.78125 
L 21.578125 24.515625 
Q 13.234375 26.265625 9.515625 29.90625 
Q 5.8125 33.546875 5.8125 39.890625 
Q 5.8125 47.609375 11.28125 51.796875 
Q 16.75 56 26.8125 56 
Q 31.78125 56 36.171875 55.265625 
Q 40.578125 54.546875 44.28125 53.078125 
z
" id="DejaVuSans-115"/>
     </defs>
     <g transform="translate(205.538281 342.771187)scale(0.14 -0.14)">
      <use xlink:href="#DejaVuSans-78"/>
      <use x="74.804688" xlink:href="#DejaVuSans-78"/>
      <use x="149.609375" xlink:href="#DejaVuSans-45"/>
      <use x="185.693359" xlink:href="#DejaVuSans-77"/>
      <use x="271.972656" xlink:href="#DejaVuSans-97"/>
      <use x="333.251953" xlink:href="#DejaVuSans-115"/>
      <use x="385.351562" xlink:href="#DejaVuSans-115"/>
     </g>
    </g>
   </g>
   <g id="matplotlib.axis_2">
    <g id="ytick_1">
     <g id="line2d_15">
      <path clip-path="url(#p5a5157184f)" d="M 57.6 286.44538 
L 414.72 286.44538 
" style="fill:none;stroke:#b0b0b0;stroke-dasharray:0.8,1.32;stroke-dashoffset:0;stroke-width:0.8;"/>
     </g>
     <g id="line2d_16">
      <defs>
       <path d="M 0 0 
L -3.5 0 
" id="m44d3035adc" style="stroke:#000000;stroke-width:0.8;"/>
      </defs>
      <g>
       <use style="stroke:#000000;stroke-width:0.8;" x="57.6" xlink:href="#m44d3035adc" y="286.44538"/>
      </g>
     </g>
     <g id="text_9">
      <!-- 0.36 -->
      <defs>
       <path d="M 10.6875 12.40625 
L 21 12.40625 
L 21 0 
L 10.6875 0 
z
" id="DejaVuSans-46"/>
       <path d="M 33.015625 40.375 
Q 26.375 40.375 22.484375 35.828125 
Q 18.609375 31.296875 18.609375 23.390625 
Q 18.609375 15.53125 22.484375 10.953125 
Q 26.375 6.390625 33.015625 6.390625 
Q 39.65625 6.390625 43.53125 10.953125 
Q 47.40625 15.53125 47.40625 23.390625 
Q 47.40625 31.296875 43.53125 35.828125 
Q 39.65625 40.375 33.015625 40.375 
z
M 52.59375 71.296875 
L 52.59375 62.3125 
Q 48.875 64.0625 45.09375 64.984375 
Q 41.3125 65.921875 37.59375 65.921875 
Q 27.828125 65.921875 22.671875 59.328125 
Q 17.53125 52.734375 16.796875 39.40625 
Q 19.671875 43.65625 24.015625 45.921875 
Q 28.375 48.1875 33.59375 48.1875 
Q 44.578125 48.1875 50.953125 41.515625 
Q 57.328125 34.859375 57.328125 23.390625 
Q 57.328125 12.15625 50.6875 5.359375 
Q 44.046875 -1.421875 33.015625 -1.421875 
Q 20.359375 -1.421875 13.671875 8.265625 
Q 6.984375 17.96875 6.984375 36.375 
Q 6.984375 53.65625 15.1875 63.9375 
Q 23.390625 74.21875 37.203125 74.21875 
Q 40.921875 74.21875 44.703125 73.484375 
Q 48.484375 72.75 52.59375 71.296875 
z
" id="DejaVuSans-54"/>
      </defs>
      <g transform="translate(19.428125 291.764286)scale(0.14 -0.14)">
       <use xlink:href="#DejaVuSans-48"/>
       <use x="63.623047" xlink:href="#DejaVuSans-46"/>
       <use x="95.410156" xlink:href="#DejaVuSans-51"/>
       <use x="159.033203" xlink:href="#DejaVuSans-54"/>
      </g>
     </g>
    </g>
    <g id="ytick_2">
     <g id="line2d_17">
      <path clip-path="url(#p5a5157184f)" d="M 57.6 233.318343 
L 414.72 233.318343 
" style="fill:none;stroke:#b0b0b0;stroke-dasharray:0.8,1.32;stroke-dashoffset:0;stroke-width:0.8;"/>
     </g>
     <g id="line2d_18">
      <g>
       <use style="stroke:#000000;stroke-width:0.8;" x="57.6" xlink:href="#m44d3035adc" y="233.318343"/>
      </g>
     </g>
     <g id="text_10">
      <!-- 0.38 -->
      <defs>
       <path d="M 31.78125 34.625 
Q 24.75 34.625 20.71875 30.859375 
Q 16.703125 27.09375 16.703125 20.515625 
Q 16.703125 13.921875 20.71875 10.15625 
Q 24.75 6.390625 31.78125 6.390625 
Q 38.8125 6.390625 42.859375 10.171875 
Q 46.921875 13.96875 46.921875 20.515625 
Q 46.921875 27.09375 42.890625 30.859375 
Q 38.875 34.625 31.78125 34.625 
z
M 21.921875 38.8125 
Q 15.578125 40.375 12.03125 44.71875 
Q 8.5 49.078125 8.5 55.328125 
Q 8.5 64.0625 14.71875 69.140625 
Q 20.953125 74.21875 31.78125 74.21875 
Q 42.671875 74.21875 48.875 69.140625 
Q 55.078125 64.0625 55.078125 55.328125 
Q 55.078125 49.078125 51.53125 44.71875 
Q 48 40.375 41.703125 38.8125 
Q 48.828125 37.15625 52.796875 32.3125 
Q 56.78125 27.484375 56.78125 20.515625 
Q 56.78125 9.90625 50.3125 4.234375 
Q 43.84375 -1.421875 31.78125 -1.421875 
Q 19.734375 -1.421875 13.25 4.234375 
Q 6.78125 9.90625 6.78125 20.515625 
Q 6.78125 27.484375 10.78125 32.3125 
Q 14.796875 37.15625 21.921875 38.8125 
z
M 18.3125 54.390625 
Q 18.3125 48.734375 21.84375 45.5625 
Q 25.390625 42.390625 31.78125 42.390625 
Q 38.140625 42.390625 41.71875 45.5625 
Q 45.3125 48.734375 45.3125 54.390625 
Q 45.3125 60.0625 41.71875 63.234375 
Q 38.140625 66.40625 31.78125 66.40625 
Q 25.390625 66.40625 21.84375 63.234375 
Q 18.3125 60.0625 18.3125 54.390625 
z
" id="DejaVuSans-56"/>
      </defs>
      <g transform="translate(19.428125 238.637249)scale(0.14 -0.14)">
       <use xlink:href="#DejaVuSans-48"/>
       <use x="63.623047" xlink:href="#DejaVuSans-46"/>
       <use x="95.410156" xlink:href="#DejaVuSans-51"/>
       <use x="159.033203" xlink:href="#DejaVuSans-56"/>
      </g>
     </g>
    </g>
    <g id="ytick_3">
     <g id="line2d_19">
      <path clip-path="url(#p5a5157184f)" d="M 57.6 180.191307 
L 414.72 180.191307 
" style="fill:none;stroke:#b0b0b0;stroke-dasharray:0.8,1.32;stroke-dashoffset:0;stroke-width:0.8;"/>
     </g>
     <g id="line2d_20">
      <g>
       <use style="stroke:#000000;stroke-width:0.8;" x="57.6" xlink:href="#m44d3035adc" y="180.191307"/>
      </g>
     </g>
     <g id="text_11">
      <!-- 0.40 -->
      <defs>
       <path d="M 37.796875 64.3125 
L 12.890625 25.390625 
L 37.796875 25.390625 
z
M 35.203125 72.90625 
L 47.609375 72.90625 
L 47.609375 25.390625 
L 58.015625 25.390625 
L 58.015625 17.1875 
L 47.609375 17.1875 
L 47.609375 0 
L 37.796875 0 
L 37.796875 17.1875 
L 4.890625 17.1875 
L 4.890625 26.703125 
z
" id="DejaVuSans-52"/>
      </defs>
      <g transform="translate(19.428125 185.510213)scale(0.14 -0.14)">
       <use xlink:href="#DejaVuSans-48"/>
       <use x="63.623047" xlink:href="#DejaVuSans-46"/>
       <use x="95.410156" xlink:href="#DejaVuSans-52"/>
       <use x="159.033203" xlink:href="#DejaVuSans-48"/>
      </g>
     </g>
    </g>
    <g id="ytick_4">
     <g id="line2d_21">
      <path clip-path="url(#p5a5157184f)" d="M 57.6 127.06427 
L 414.72 127.06427 
" style="fill:none;stroke:#b0b0b0;stroke-dasharray:0.8,1.32;stroke-dashoffset:0;stroke-width:0.8;"/>
     </g>
     <g id="line2d_22">
      <g>
       <use style="stroke:#000000;stroke-width:0.8;" x="57.6" xlink:href="#m44d3035adc" y="127.06427"/>
      </g>
     </g>
     <g id="text_12">
      <!-- 0.42 -->
      <g transform="translate(19.428125 132.383176)scale(0.14 -0.14)">
       <use xlink:href="#DejaVuSans-48"/>
       <use x="63.623047" xlink:href="#DejaVuSans-46"/>
       <use x="95.410156" xlink:href="#DejaVuSans-52"/>
       <use x="159.033203" xlink:href="#DejaVuSans-50"/>
      </g>
     </g>
    </g>
    <g id="ytick_5">
     <g id="line2d_23">
      <path clip-path="url(#p5a5157184f)" d="M 57.6 73.937233 
L 414.72 73.937233 
" style="fill:none;stroke:#b0b0b0;stroke-dasharray:0.8,1.32;stroke-dashoffset:0;stroke-width:0.8;"/>
     </g>
     <g id="line2d_24">
      <g>
       <use style="stroke:#000000;stroke-width:0.8;" x="57.6" xlink:href="#m44d3035adc" y="73.937233"/>
      </g>
     </g>
     <g id="text_13">
      <!-- 0.44 -->
      <g transform="translate(19.428125 79.256139)scale(0.14 -0.14)">
       <use xlink:href="#DejaVuSans-48"/>
       <use x="63.623047" xlink:href="#DejaVuSans-46"/>
       <use x="95.410156" xlink:href="#DejaVuSans-52"/>
       <use x="159.033203" xlink:href="#DejaVuSans-52"/>
      </g>
     </g>
    </g>
    <g id="text_14">
     <!-- Initial Singular Value (Mean) -->
     <defs>
      <path d="M 9.8125 72.90625 
L 19.671875 72.90625 
L 19.671875 0 
L 9.8125 0 
z
" id="DejaVuSans-73"/>
      <path d="M 54.890625 33.015625 
L 54.890625 0 
L 45.90625 0 
L 45.90625 32.71875 
Q 45.90625 40.484375 42.875 44.328125 
Q 39.84375 48.1875 33.796875 48.1875 
Q 26.515625 48.1875 22.3125 43.546875 
Q 18.109375 38.921875 18.109375 30.90625 
L 18.109375 0 
L 9.078125 0 
L 9.078125 54.6875 
L 18.109375 54.6875 
L 18.109375 46.1875 
Q 21.34375 51.125 25.703125 53.5625 
Q 30.078125 56 35.796875 56 
Q 45.21875 56 50.046875 50.171875 
Q 54.890625 44.34375 54.890625 33.015625 
z
" id="DejaVuSans-110"/>
      <path d="M 9.421875 54.6875 
L 18.40625 54.6875 
L 18.40625 0 
L 9.421875 0 
z
M 9.421875 75.984375 
L 18.40625 75.984375 
L 18.40625 64.59375 
L 9.421875 64.59375 
z
" id="DejaVuSans-105"/>
      <path d="M 18.3125 70.21875 
L 18.3125 54.6875 
L 36.8125 54.6875 
L 36.8125 47.703125 
L 18.3125 47.703125 
L 18.3125 18.015625 
Q 18.3125 11.328125 20.140625 9.421875 
Q 21.96875 7.515625 27.59375 7.515625 
L 36.8125 7.515625 
L 36.8125 0 
L 27.59375 0 
Q 17.1875 0 13.234375 3.875 
Q 9.28125 7.765625 9.28125 18.015625 
L 9.28125 47.703125 
L 2.6875 47.703125 
L 2.6875 54.6875 
L 9.28125 54.6875 
L 9.28125 70.21875 
z
" id="DejaVuSans-116"/>
      <path d="M 9.421875 75.984375 
L 18.40625 75.984375 
L 18.40625 0 
L 9.421875 0 
z
" id="DejaVuSans-108"/>
      <path id="DejaVuSans-32"/>
      <path d="M 53.515625 70.515625 
L 53.515625 60.890625 
Q 47.90625 63.578125 42.921875 64.890625 
Q 37.9375 66.21875 33.296875 66.21875 
Q 25.25 66.21875 20.875 63.09375 
Q 16.5 59.96875 16.5 54.203125 
Q 16.5 49.359375 19.40625 46.890625 
Q 22.3125 44.4375 30.421875 42.921875 
L 36.375 41.703125 
Q 47.40625 39.59375 52.65625 34.296875 
Q 57.90625 29 57.90625 20.125 
Q 57.90625 9.515625 50.796875 4.046875 
Q 43.703125 -1.421875 29.984375 -1.421875 
Q 24.8125 -1.421875 18.96875 -0.25 
Q 13.140625 0.921875 6.890625 3.21875 
L 6.890625 13.375 
Q 12.890625 10.015625 18.65625 8.296875 
Q 24.421875 6.59375 29.984375 6.59375 
Q 38.421875 6.59375 43.015625 9.90625 
Q 47.609375 13.234375 47.609375 19.390625 
Q 47.609375 24.75 44.3125 27.78125 
Q 41.015625 30.8125 33.5 32.328125 
L 27.484375 33.5 
Q 16.453125 35.6875 11.515625 40.375 
Q 6.59375 45.0625 6.59375 53.421875 
Q 6.59375 63.09375 13.40625 68.65625 
Q 20.21875 74.21875 32.171875 74.21875 
Q 37.3125 74.21875 42.625 73.28125 
Q 47.953125 72.359375 53.515625 70.515625 
z
" id="DejaVuSans-83"/>
      <path d="M 45.40625 27.984375 
Q 45.40625 37.75 41.375 43.109375 
Q 37.359375 48.484375 30.078125 48.484375 
Q 22.859375 48.484375 18.828125 43.109375 
Q 14.796875 37.75 14.796875 27.984375 
Q 14.796875 18.265625 18.828125 12.890625 
Q 22.859375 7.515625 30.078125 7.515625 
Q 37.359375 7.515625 41.375 12.890625 
Q 45.40625 18.265625 45.40625 27.984375 
z
M 54.390625 6.78125 
Q 54.390625 -7.171875 48.1875 -13.984375 
Q 42 -20.796875 29.203125 -20.796875 
Q 24.46875 -20.796875 20.265625 -20.09375 
Q 16.0625 -19.390625 12.109375 -17.921875 
L 12.109375 -9.1875 
Q 16.0625 -11.328125 19.921875 -12.34375 
Q 23.78125 -13.375 27.78125 -13.375 
Q 36.625 -13.375 41.015625 -8.765625 
Q 45.40625 -4.15625 45.40625 5.171875 
L 45.40625 9.625 
Q 42.625 4.78125 38.28125 2.390625 
Q 33.9375 0 27.875 0 
Q 17.828125 0 11.671875 7.65625 
Q 5.515625 15.328125 5.515625 27.984375 
Q 5.515625 40.671875 11.671875 48.328125 
Q 17.828125 56 27.875 56 
Q 33.9375 56 38.28125 53.609375 
Q 42.625 51.21875 45.40625 46.390625 
L 45.40625 54.6875 
L 54.390625 54.6875 
z
" id="DejaVuSans-103"/>
      <path d="M 8.5 21.578125 
L 8.5 54.6875 
L 17.484375 54.6875 
L 17.484375 21.921875 
Q 17.484375 14.15625 20.5 10.265625 
Q 23.53125 6.390625 29.59375 6.390625 
Q 36.859375 6.390625 41.078125 11.03125 
Q 45.3125 15.671875 45.3125 23.6875 
L 45.3125 54.6875 
L 54.296875 54.6875 
L 54.296875 0 
L 45.3125 0 
L 45.3125 8.40625 
Q 42.046875 3.421875 37.71875 1 
Q 33.40625 -1.421875 27.6875 -1.421875 
Q 18.265625 -1.421875 13.375 4.4375 
Q 8.5 10.296875 8.5 21.578125 
z
M 31.109375 56 
z
" id="DejaVuSans-117"/>
      <path d="M 41.109375 46.296875 
Q 39.59375 47.171875 37.8125 47.578125 
Q 36.03125 48 33.890625 48 
Q 26.265625 48 22.1875 43.046875 
Q 18.109375 38.09375 18.109375 28.8125 
L 18.109375 0 
L 9.078125 0 
L 9.078125 54.6875 
L 18.109375 54.6875 
L 18.109375 46.1875 
Q 20.953125 51.171875 25.484375 53.578125 
Q 30.03125 56 36.53125 56 
Q 37.453125 56 38.578125 55.875 
Q 39.703125 55.765625 41.0625 55.515625 
z
" id="DejaVuSans-114"/>
      <path d="M 28.609375 0 
L 0.78125 72.90625 
L 11.078125 72.90625 
L 34.1875 11.53125 
L 57.328125 72.90625 
L 67.578125 72.90625 
L 39.796875 0 
z
" id="DejaVuSans-86"/>
      <path d="M 56.203125 29.59375 
L 56.203125 25.203125 
L 14.890625 25.203125 
Q 15.484375 15.921875 20.484375 11.0625 
Q 25.484375 6.203125 34.421875 6.203125 
Q 39.59375 6.203125 44.453125 7.46875 
Q 49.3125 8.734375 54.109375 11.28125 
L 54.109375 2.78125 
Q 49.265625 0.734375 44.1875 -0.34375 
Q 39.109375 -1.421875 33.890625 -1.421875 
Q 20.796875 -1.421875 13.15625 6.1875 
Q 5.515625 13.8125 5.515625 26.8125 
Q 5.515625 40.234375 12.765625 48.109375 
Q 20.015625 56 32.328125 56 
Q 43.359375 56 49.78125 48.890625 
Q 56.203125 41.796875 56.203125 29.59375 
z
M 47.21875 32.234375 
Q 47.125 39.59375 43.09375 43.984375 
Q 39.0625 48.390625 32.421875 48.390625 
Q 24.90625 48.390625 20.390625 44.140625 
Q 15.875 39.890625 15.1875 32.171875 
z
" id="DejaVuSans-101"/>
      <path d="M 31 75.875 
Q 24.46875 64.65625 21.28125 53.65625 
Q 18.109375 42.671875 18.109375 31.390625 
Q 18.109375 20.125 21.3125 9.0625 
Q 24.515625 -2 31 -13.1875 
L 23.1875 -13.1875 
Q 15.875 -1.703125 12.234375 9.375 
Q 8.59375 20.453125 8.59375 31.390625 
Q 8.59375 42.28125 12.203125 53.3125 
Q 15.828125 64.359375 23.1875 75.875 
z
" id="DejaVuSans-40"/>
      <path d="M 8.015625 75.875 
L 15.828125 75.875 
Q 23.140625 64.359375 26.78125 53.3125 
Q 30.421875 42.28125 30.421875 31.390625 
Q 30.421875 20.453125 26.78125 9.375 
Q 23.140625 -1.703125 15.828125 -13.1875 
L 8.015625 -13.1875 
Q 14.5 -2 17.703125 9.0625 
Q 20.90625 20.125 20.90625 31.390625 
Q 20.90625 42.671875 17.703125 53.65625 
Q 14.5 64.65625 8.015625 75.875 
z
" id="DejaVuSans-41"/>
     </defs>
     <g transform="translate(12.516562 273.681906)rotate(-90)scale(0.14 -0.14)">
      <use xlink:href="#DejaVuSans-73"/>
      <use x="29.492188" xlink:href="#DejaVuSans-110"/>
      <use x="92.871094" xlink:href="#DejaVuSans-105"/>
      <use x="120.654297" xlink:href="#DejaVuSans-116"/>
      <use x="159.863281" xlink:href="#DejaVuSans-105"/>
      <use x="187.646484" xlink:href="#DejaVuSans-97"/>
      <use x="248.925781" xlink:href="#DejaVuSans-108"/>
      <use x="276.708984" xlink:href="#DejaVuSans-32"/>
      <use x="308.496094" xlink:href="#DejaVuSans-83"/>
      <use x="371.972656" xlink:href="#DejaVuSans-105"/>
      <use x="399.755859" xlink:href="#DejaVuSans-110"/>
      <use x="463.134766" xlink:href="#DejaVuSans-103"/>
      <use x="526.611328" xlink:href="#DejaVuSans-117"/>
      <use x="589.990234" xlink:href="#DejaVuSans-108"/>
      <use x="617.773438" xlink:href="#DejaVuSans-97"/>
      <use x="679.052734" xlink:href="#DejaVuSans-114"/>
      <use x="720.166016" xlink:href="#DejaVuSans-32"/>
      <use x="751.953125" xlink:href="#DejaVuSans-86"/>
      <use x="820.251953" xlink:href="#DejaVuSans-97"/>
      <use x="881.53125" xlink:href="#DejaVuSans-108"/>
      <use x="909.314453" xlink:href="#DejaVuSans-117"/>
      <use x="972.693359" xlink:href="#DejaVuSans-101"/>
      <use x="1034.216797" xlink:href="#DejaVuSans-32"/>
      <use x="1066.003906" xlink:href="#DejaVuSans-40"/>
      <use x="1105.017578" xlink:href="#DejaVuSans-77"/>
      <use x="1191.296875" xlink:href="#DejaVuSans-101"/>
      <use x="1252.820312" xlink:href="#DejaVuSans-97"/>
      <use x="1314.099609" xlink:href="#DejaVuSans-110"/>
      <use x="1377.478516" xlink:href="#DejaVuSans-41"/>
     </g>
    </g>
   </g>
   <g id="line2d_25">
    <path clip-path="url(#p5a5157184f)" d="M 73.832727 223.126089 
L 97.754641 240.345272 
L 121.676555 208.860917 
L 145.598469 210.280512 
L 169.520383 234.267328 
L 193.442297 148.929439 
L 217.364211 132.368279 
L 241.286124 108.192036 
L 265.208038 162.247855 
L 287.421244 90.370056 
L 309.63445 80.055621 
L 331.847656 79.291706 
L 354.060861 53.568 
L 376.274067 148.814681 
L 398.487273 109.291486 
" style="fill:none;stroke:#1f77b4;stroke-linecap:square;stroke-width:1.5;"/>
    <defs>
     <path d="M -3 3 
L 3 3 
L 3 -3 
L -3 -3 
z
" id="mabda0b1ecd" style="stroke:#1f77b4;stroke-linejoin:miter;"/>
    </defs>
    <g clip-path="url(#p5a5157184f)">
     <use style="fill:#1f77b4;stroke:#1f77b4;stroke-linejoin:miter;" x="73.832727" xlink:href="#mabda0b1ecd" y="223.126089"/>
     <use style="fill:#1f77b4;stroke:#1f77b4;stroke-linejoin:miter;" x="97.754641" xlink:href="#mabda0b1ecd" y="240.345272"/>
     <use style="fill:#1f77b4;stroke:#1f77b4;stroke-linejoin:miter;" x="121.676555" xlink:href="#mabda0b1ecd" y="208.860917"/>
     <use style="fill:#1f77b4;stroke:#1f77b4;stroke-linejoin:miter;" x="145.598469" xlink:href="#mabda0b1ecd" y="210.280512"/>
     <use style="fill:#1f77b4;stroke:#1f77b4;stroke-linejoin:miter;" x="169.520383" xlink:href="#mabda0b1ecd" y="234.267328"/>
     <use style="fill:#1f77b4;stroke:#1f77b4;stroke-linejoin:miter;" x="193.442297" xlink:href="#mabda0b1ecd" y="148.929439"/>
     <use style="fill:#1f77b4;stroke:#1f77b4;stroke-linejoin:miter;" x="217.364211" xlink:href="#mabda0b1ecd" y="132.368279"/>
     <use style="fill:#1f77b4;stroke:#1f77b4;stroke-linejoin:miter;" x="241.286124" xlink:href="#mabda0b1ecd" y="108.192036"/>
     <use style="fill:#1f77b4;stroke:#1f77b4;stroke-linejoin:miter;" x="265.208038" xlink:href="#mabda0b1ecd" y="162.247855"/>
     <use style="fill:#1f77b4;stroke:#1f77b4;stroke-linejoin:miter;" x="287.421244" xlink:href="#mabda0b1ecd" y="90.370056"/>
     <use style="fill:#1f77b4;stroke:#1f77b4;stroke-linejoin:miter;" x="309.63445" xlink:href="#mabda0b1ecd" y="80.055621"/>
     <use style="fill:#1f77b4;stroke:#1f77b4;stroke-linejoin:miter;" x="331.847656" xlink:href="#mabda0b1ecd" y="79.291706"/>
     <use style="fill:#1f77b4;stroke:#1f77b4;stroke-linejoin:miter;" x="354.060861" xlink:href="#mabda0b1ecd" y="53.568"/>
     <use style="fill:#1f77b4;stroke:#1f77b4;stroke-linejoin:miter;" x="376.274067" xlink:href="#mabda0b1ecd" y="148.814681"/>
     <use style="fill:#1f77b4;stroke:#1f77b4;stroke-linejoin:miter;" x="398.487273" xlink:href="#mabda0b1ecd" y="109.291486"/>
    </g>
   </g>
   <g id="line2d_26">
    <path clip-path="url(#p5a5157184f)" d="M 73.832727 250.982892 
L 97.2346 229.400996 
L 120.636472 196.120029 
L 144.038344 210.204767 
L 167.440216 201.024741 
L 190.842089 236.163056 
L 214.243961 182.782487 
L 237.645833 128.19151 
L 261.047705 179.97509 
L 283.385856 177.58442 
L 305.724007 128.935285 
L 328.062158 172.140497 
L 350.400309 107.50032 
L 372.738459 113.14792 
L 395.07661 116.89745 
" style="fill:none;stroke:#ff7f0e;stroke-linecap:square;stroke-width:1.5;"/>
    <defs>
     <path d="M 0 3 
C 0.795609 3 1.55874 2.683901 2.12132 2.12132 
C 2.683901 1.55874 3 0.795609 3 0 
C 3 -0.795609 2.683901 -1.55874 2.12132 -2.12132 
C 1.55874 -2.683901 0.795609 -3 0 -3 
C -0.795609 -3 -1.55874 -2.683901 -2.12132 -2.12132 
C -2.683901 -1.55874 -3 -0.795609 -3 0 
C -3 0.795609 -2.683901 1.55874 -2.12132 2.12132 
C -1.55874 2.683901 -0.795609 3 0 3 
z
" id="mea41d2cd1f" style="stroke:#ff7f0e;"/>
    </defs>
    <g clip-path="url(#p5a5157184f)">
     <use style="fill:#ff7f0e;stroke:#ff7f0e;" x="73.832727" xlink:href="#mea41d2cd1f" y="250.982892"/>
     <use style="fill:#ff7f0e;stroke:#ff7f0e;" x="97.2346" xlink:href="#mea41d2cd1f" y="229.400996"/>
     <use style="fill:#ff7f0e;stroke:#ff7f0e;" x="120.636472" xlink:href="#mea41d2cd1f" y="196.120029"/>
     <use style="fill:#ff7f0e;stroke:#ff7f0e;" x="144.038344" xlink:href="#mea41d2cd1f" y="210.204767"/>
     <use style="fill:#ff7f0e;stroke:#ff7f0e;" x="167.440216" xlink:href="#mea41d2cd1f" y="201.024741"/>
     <use style="fill:#ff7f0e;stroke:#ff7f0e;" x="190.842089" xlink:href="#mea41d2cd1f" y="236.163056"/>
     <use style="fill:#ff7f0e;stroke:#ff7f0e;" x="214.243961" xlink:href="#mea41d2cd1f" y="182.782487"/>
     <use style="fill:#ff7f0e;stroke:#ff7f0e;" x="237.645833" xlink:href="#mea41d2cd1f" y="128.19151"/>
     <use style="fill:#ff7f0e;stroke:#ff7f0e;" x="261.047705" xlink:href="#mea41d2cd1f" y="179.97509"/>
     <use style="fill:#ff7f0e;stroke:#ff7f0e;" x="283.385856" xlink:href="#mea41d2cd1f" y="177.58442"/>
     <use style="fill:#ff7f0e;stroke:#ff7f0e;" x="305.724007" xlink:href="#mea41d2cd1f" y="128.935285"/>
     <use style="fill:#ff7f0e;stroke:#ff7f0e;" x="328.062158" xlink:href="#mea41d2cd1f" y="172.140497"/>
     <use style="fill:#ff7f0e;stroke:#ff7f0e;" x="350.400309" xlink:href="#mea41d2cd1f" y="107.50032"/>
     <use style="fill:#ff7f0e;stroke:#ff7f0e;" x="372.738459" xlink:href="#mea41d2cd1f" y="113.14792"/>
     <use style="fill:#ff7f0e;stroke:#ff7f0e;" x="395.07661" xlink:href="#mea41d2cd1f" y="116.89745"/>
    </g>
   </g>
   <g id="line2d_27">
    <path clip-path="url(#p5a5157184f)" d="M 73.832727 260.388444 
L 96.982967 295.488 
L 120.133206 216.608872 
L 143.283445 188.034133 
L 166.433684 179.432458 
L 189.583923 134.914747 
L 212.734163 94.863361 
L 235.884402 213.332562 
L 259.034641 161.24239 
L 281.413206 136.112869 
L 303.79177 128.954158 
L 326.170335 128.228243 
L 348.5489 91.593004 
L 370.927464 73.79319 
L 393.306029 97.993119 
" style="fill:none;stroke:#2ca02c;stroke-linecap:square;stroke-width:1.5;"/>
    <defs>
     <path d="M 0 -3 
L -3 3 
L 3 3 
z
" id="mfd1db955f6" style="stroke:#2ca02c;stroke-linejoin:miter;"/>
    </defs>
    <g clip-path="url(#p5a5157184f)">
     <use style="fill:#2ca02c;stroke:#2ca02c;stroke-linejoin:miter;" x="73.832727" xlink:href="#mfd1db955f6" y="260.388444"/>
     <use style="fill:#2ca02c;stroke:#2ca02c;stroke-linejoin:miter;" x="96.982967" xlink:href="#mfd1db955f6" y="295.488"/>
     <use style="fill:#2ca02c;stroke:#2ca02c;stroke-linejoin:miter;" x="120.133206" xlink:href="#mfd1db955f6" y="216.608872"/>
     <use style="fill:#2ca02c;stroke:#2ca02c;stroke-linejoin:miter;" x="143.283445" xlink:href="#mfd1db955f6" y="188.034133"/>
     <use style="fill:#2ca02c;stroke:#2ca02c;stroke-linejoin:miter;" x="166.433684" xlink:href="#mfd1db955f6" y="179.432458"/>
     <use style="fill:#2ca02c;stroke:#2ca02c;stroke-linejoin:miter;" x="189.583923" xlink:href="#mfd1db955f6" y="134.914747"/>
     <use style="fill:#2ca02c;stroke:#2ca02c;stroke-linejoin:miter;" x="212.734163" xlink:href="#mfd1db955f6" y="94.863361"/>
     <use style="fill:#2ca02c;stroke:#2ca02c;stroke-linejoin:miter;" x="235.884402" xlink:href="#mfd1db955f6" y="213.332562"/>
     <use style="fill:#2ca02c;stroke:#2ca02c;stroke-linejoin:miter;" x="259.034641" xlink:href="#mfd1db955f6" y="161.24239"/>
     <use style="fill:#2ca02c;stroke:#2ca02c;stroke-linejoin:miter;" x="281.413206" xlink:href="#mfd1db955f6" y="136.112869"/>
     <use style="fill:#2ca02c;stroke:#2ca02c;stroke-linejoin:miter;" x="303.79177" xlink:href="#mfd1db955f6" y="128.954158"/>
     <use style="fill:#2ca02c;stroke:#2ca02c;stroke-linejoin:miter;" x="326.170335" xlink:href="#mfd1db955f6" y="128.228243"/>
     <use style="fill:#2ca02c;stroke:#2ca02c;stroke-linejoin:miter;" x="348.5489" xlink:href="#mfd1db955f6" y="91.593004"/>
     <use style="fill:#2ca02c;stroke:#2ca02c;stroke-linejoin:miter;" x="370.927464" xlink:href="#mfd1db955f6" y="73.79319"/>
     <use style="fill:#2ca02c;stroke:#2ca02c;stroke-linejoin:miter;" x="393.306029" xlink:href="#mfd1db955f6" y="97.993119"/>
    </g>
   </g>
   <g id="line2d_28">
    <path clip-path="url(#p5a5157184f)" d="M 73.832727 228.464057 
L 96.834568 216.563526 
L 119.836408 186.672107 
L 142.838248 210.819471 
L 165.840088 164.5472 
L 188.841929 199.178222 
L 211.843769 159.07199 
L 234.845609 130.418023 
L 257.847449 145.217529 
L 280.243978 101.348975 
L 302.640507 87.498567 
L 325.037035 112.74842 
L 347.433564 147.705984 
L 369.830093 120.526647 
L 392.226621 201.351409 
" style="fill:none;stroke:#d62728;stroke-linecap:square;stroke-width:1.5;"/>
    <defs>
     <path d="M -0 3 
L 3 -3 
L -3 -3 
z
" id="m205595f08d" style="stroke:#d62728;stroke-linejoin:miter;"/>
    </defs>
    <g clip-path="url(#p5a5157184f)">
     <use style="fill:#d62728;stroke:#d62728;stroke-linejoin:miter;" x="73.832727" xlink:href="#m205595f08d" y="228.464057"/>
     <use style="fill:#d62728;stroke:#d62728;stroke-linejoin:miter;" x="96.834568" xlink:href="#m205595f08d" y="216.563526"/>
     <use style="fill:#d62728;stroke:#d62728;stroke-linejoin:miter;" x="119.836408" xlink:href="#m205595f08d" y="186.672107"/>
     <use style="fill:#d62728;stroke:#d62728;stroke-linejoin:miter;" x="142.838248" xlink:href="#m205595f08d" y="210.819471"/>
     <use style="fill:#d62728;stroke:#d62728;stroke-linejoin:miter;" x="165.840088" xlink:href="#m205595f08d" y="164.5472"/>
     <use style="fill:#d62728;stroke:#d62728;stroke-linejoin:miter;" x="188.841929" xlink:href="#m205595f08d" y="199.178222"/>
     <use style="fill:#d62728;stroke:#d62728;stroke-linejoin:miter;" x="211.843769" xlink:href="#m205595f08d" y="159.07199"/>
     <use style="fill:#d62728;stroke:#d62728;stroke-linejoin:miter;" x="234.845609" xlink:href="#m205595f08d" y="130.418023"/>
     <use style="fill:#d62728;stroke:#d62728;stroke-linejoin:miter;" x="257.847449" xlink:href="#m205595f08d" y="145.217529"/>
     <use style="fill:#d62728;stroke:#d62728;stroke-linejoin:miter;" x="280.243978" xlink:href="#m205595f08d" y="101.348975"/>
     <use style="fill:#d62728;stroke:#d62728;stroke-linejoin:miter;" x="302.640507" xlink:href="#m205595f08d" y="87.498567"/>
     <use style="fill:#d62728;stroke:#d62728;stroke-linejoin:miter;" x="325.037035" xlink:href="#m205595f08d" y="112.74842"/>
     <use style="fill:#d62728;stroke:#d62728;stroke-linejoin:miter;" x="347.433564" xlink:href="#m205595f08d" y="147.705984"/>
     <use style="fill:#d62728;stroke:#d62728;stroke-linejoin:miter;" x="369.830093" xlink:href="#m205595f08d" y="120.526647"/>
     <use style="fill:#d62728;stroke:#d62728;stroke-linejoin:miter;" x="392.226621" xlink:href="#m205595f08d" y="201.351409"/>
    </g>
   </g>
   <g id="line2d_29">
    <defs>
     <path d="M 0 -3 
L -2.85317 -0.927051 
L -1.763356 2.427051 
L 1.763356 2.427051 
L 2.85317 -0.927051 
z
" id="m94a994347e" style="stroke:#9467bd;stroke-linejoin:miter;"/>
    </defs>
    <g clip-path="url(#p5a5157184f)">
     <use style="fill:#9467bd;stroke:#9467bd;stroke-linejoin:miter;" x="73.832727" xlink:href="#m94a994347e" y="230.787448"/>
     <use style="fill:#9467bd;stroke:#9467bd;stroke-linejoin:miter;" x="97.754641" xlink:href="#m94a994347e" y="220.52535"/>
     <use style="fill:#9467bd;stroke:#9467bd;stroke-linejoin:miter;" x="121.676555" xlink:href="#m94a994347e" y="210.263252"/>
     <use style="fill:#9467bd;stroke:#9467bd;stroke-linejoin:miter;" x="145.598469" xlink:href="#m94a994347e" y="200.001154"/>
     <use style="fill:#9467bd;stroke:#9467bd;stroke-linejoin:miter;" x="169.520383" xlink:href="#m94a994347e" y="189.739055"/>
     <use style="fill:#9467bd;stroke:#9467bd;stroke-linejoin:miter;" x="193.442297" xlink:href="#m94a994347e" y="179.476957"/>
     <use style="fill:#9467bd;stroke:#9467bd;stroke-linejoin:miter;" x="217.364211" xlink:href="#m94a994347e" y="169.214859"/>
     <use style="fill:#9467bd;stroke:#9467bd;stroke-linejoin:miter;" x="241.286124" xlink:href="#m94a994347e" y="158.95276"/>
     <use style="fill:#9467bd;stroke:#9467bd;stroke-linejoin:miter;" x="265.208038" xlink:href="#m94a994347e" y="148.690662"/>
     <use style="fill:#9467bd;stroke:#9467bd;stroke-linejoin:miter;" x="287.421244" xlink:href="#m94a994347e" y="139.161571"/>
     <use style="fill:#9467bd;stroke:#9467bd;stroke-linejoin:miter;" x="309.63445" xlink:href="#m94a994347e" y="129.63248"/>
     <use style="fill:#9467bd;stroke:#9467bd;stroke-linejoin:miter;" x="331.847656" xlink:href="#m94a994347e" y="120.103389"/>
     <use style="fill:#9467bd;stroke:#9467bd;stroke-linejoin:miter;" x="354.060861" xlink:href="#m94a994347e" y="110.574297"/>
     <use style="fill:#9467bd;stroke:#9467bd;stroke-linejoin:miter;" x="376.274067" xlink:href="#m94a994347e" y="101.045206"/>
     <use style="fill:#9467bd;stroke:#9467bd;stroke-linejoin:miter;" x="398.487273" xlink:href="#m94a994347e" y="91.516115"/>
     <use style="fill:#9467bd;stroke:#9467bd;stroke-linejoin:miter;" x="73.832727" xlink:href="#m94a994347e" y="230.787448"/>
     <use style="fill:#9467bd;stroke:#9467bd;stroke-linejoin:miter;" x="97.2346" xlink:href="#m94a994347e" y="220.748439"/>
     <use style="fill:#9467bd;stroke:#9467bd;stroke-linejoin:miter;" x="120.636472" xlink:href="#m94a994347e" y="210.70943"/>
     <use style="fill:#9467bd;stroke:#9467bd;stroke-linejoin:miter;" x="144.038344" xlink:href="#m94a994347e" y="200.670421"/>
     <use style="fill:#9467bd;stroke:#9467bd;stroke-linejoin:miter;" x="167.440216" xlink:href="#m94a994347e" y="190.631412"/>
     <use style="fill:#9467bd;stroke:#9467bd;stroke-linejoin:miter;" x="190.842089" xlink:href="#m94a994347e" y="180.592402"/>
     <use style="fill:#9467bd;stroke:#9467bd;stroke-linejoin:miter;" x="214.243961" xlink:href="#m94a994347e" y="170.553393"/>
     <use style="fill:#9467bd;stroke:#9467bd;stroke-linejoin:miter;" x="237.645833" xlink:href="#m94a994347e" y="160.514384"/>
     <use style="fill:#9467bd;stroke:#9467bd;stroke-linejoin:miter;" x="261.047705" xlink:href="#m94a994347e" y="150.475375"/>
     <use style="fill:#9467bd;stroke:#9467bd;stroke-linejoin:miter;" x="283.385856" xlink:href="#m94a994347e" y="140.892684"/>
     <use style="fill:#9467bd;stroke:#9467bd;stroke-linejoin:miter;" x="305.724007" xlink:href="#m94a994347e" y="131.309994"/>
     <use style="fill:#9467bd;stroke:#9467bd;stroke-linejoin:miter;" x="328.062158" xlink:href="#m94a994347e" y="121.727303"/>
     <use style="fill:#9467bd;stroke:#9467bd;stroke-linejoin:miter;" x="350.400309" xlink:href="#m94a994347e" y="112.144613"/>
     <use style="fill:#9467bd;stroke:#9467bd;stroke-linejoin:miter;" x="372.738459" xlink:href="#m94a994347e" y="102.561922"/>
     <use style="fill:#9467bd;stroke:#9467bd;stroke-linejoin:miter;" x="395.07661" xlink:href="#m94a994347e" y="92.979232"/>
     <use style="fill:#9467bd;stroke:#9467bd;stroke-linejoin:miter;" x="73.832727" xlink:href="#m94a994347e" y="230.787448"/>
     <use style="fill:#9467bd;stroke:#9467bd;stroke-linejoin:miter;" x="96.982967" xlink:href="#m94a994347e" y="220.856385"/>
     <use style="fill:#9467bd;stroke:#9467bd;stroke-linejoin:miter;" x="120.133206" xlink:href="#m94a994347e" y="210.925323"/>
     <use style="fill:#9467bd;stroke:#9467bd;stroke-linejoin:miter;" x="143.283445" xlink:href="#m94a994347e" y="200.99426"/>
     <use style="fill:#9467bd;stroke:#9467bd;stroke-linejoin:miter;" x="166.433684" xlink:href="#m94a994347e" y="191.063197"/>
     <use style="fill:#9467bd;stroke:#9467bd;stroke-linejoin:miter;" x="189.583923" xlink:href="#m94a994347e" y="181.132134"/>
     <use style="fill:#9467bd;stroke:#9467bd;stroke-linejoin:miter;" x="212.734163" xlink:href="#m94a994347e" y="171.201071"/>
     <use style="fill:#9467bd;stroke:#9467bd;stroke-linejoin:miter;" x="235.884402" xlink:href="#m94a994347e" y="161.270008"/>
     <use style="fill:#9467bd;stroke:#9467bd;stroke-linejoin:miter;" x="259.034641" xlink:href="#m94a994347e" y="151.338946"/>
     <use style="fill:#9467bd;stroke:#9467bd;stroke-linejoin:miter;" x="281.413206" xlink:href="#m94a994347e" y="141.738918"/>
     <use style="fill:#9467bd;stroke:#9467bd;stroke-linejoin:miter;" x="303.79177" xlink:href="#m94a994347e" y="132.138891"/>
     <use style="fill:#9467bd;stroke:#9467bd;stroke-linejoin:miter;" x="326.170335" xlink:href="#m94a994347e" y="122.538863"/>
     <use style="fill:#9467bd;stroke:#9467bd;stroke-linejoin:miter;" x="348.5489" xlink:href="#m94a994347e" y="112.938836"/>
     <use style="fill:#9467bd;stroke:#9467bd;stroke-linejoin:miter;" x="370.927464" xlink:href="#m94a994347e" y="103.338809"/>
     <use style="fill:#9467bd;stroke:#9467bd;stroke-linejoin:miter;" x="393.306029" xlink:href="#m94a994347e" y="93.738781"/>
     <use style="fill:#9467bd;stroke:#9467bd;stroke-linejoin:miter;" x="73.832727" xlink:href="#m94a994347e" y="230.787448"/>
     <use style="fill:#9467bd;stroke:#9467bd;stroke-linejoin:miter;" x="96.834568" xlink:href="#m94a994347e" y="220.920046"/>
     <use style="fill:#9467bd;stroke:#9467bd;stroke-linejoin:miter;" x="119.836408" xlink:href="#m94a994347e" y="211.052644"/>
     <use style="fill:#9467bd;stroke:#9467bd;stroke-linejoin:miter;" x="142.838248" xlink:href="#m94a994347e" y="201.185242"/>
     <use style="fill:#9467bd;stroke:#9467bd;stroke-linejoin:miter;" x="165.840088" xlink:href="#m94a994347e" y="191.31784"/>
     <use style="fill:#9467bd;stroke:#9467bd;stroke-linejoin:miter;" x="188.841929" xlink:href="#m94a994347e" y="181.450437"/>
     <use style="fill:#9467bd;stroke:#9467bd;stroke-linejoin:miter;" x="211.843769" xlink:href="#m94a994347e" y="171.583035"/>
     <use style="fill:#9467bd;stroke:#9467bd;stroke-linejoin:miter;" x="234.845609" xlink:href="#m94a994347e" y="161.715633"/>
     <use style="fill:#9467bd;stroke:#9467bd;stroke-linejoin:miter;" x="257.847449" xlink:href="#m94a994347e" y="151.848231"/>
     <use style="fill:#9467bd;stroke:#9467bd;stroke-linejoin:miter;" x="280.243978" xlink:href="#m94a994347e" y="142.240497"/>
     <use style="fill:#9467bd;stroke:#9467bd;stroke-linejoin:miter;" x="302.640507" xlink:href="#m94a994347e" y="132.632764"/>
     <use style="fill:#9467bd;stroke:#9467bd;stroke-linejoin:miter;" x="325.037035" xlink:href="#m94a994347e" y="123.02503"/>
     <use style="fill:#9467bd;stroke:#9467bd;stroke-linejoin:miter;" x="347.433564" xlink:href="#m94a994347e" y="113.417296"/>
     <use style="fill:#9467bd;stroke:#9467bd;stroke-linejoin:miter;" x="369.830093" xlink:href="#m94a994347e" y="103.809562"/>
     <use style="fill:#9467bd;stroke:#9467bd;stroke-linejoin:miter;" x="392.226621" xlink:href="#m94a994347e" y="94.201829"/>
    </g>
   </g>
   <g id="patch_3">
    <path d="M 57.6 307.584 
L 57.6 41.472 
" style="fill:none;stroke:#000000;stroke-linecap:square;stroke-linejoin:miter;stroke-width:0.8;"/>
   </g>
   <g id="patch_4">
    <path d="M 414.72 307.584 
L 414.72 41.472 
" style="fill:none;stroke:#000000;stroke-linecap:square;stroke-linejoin:miter;stroke-width:0.8;"/>
   </g>
   <g id="patch_5">
    <path d="M 57.6 307.584 
L 414.72 307.584 
" style="fill:none;stroke:#000000;stroke-linecap:square;stroke-linejoin:miter;stroke-width:0.8;"/>
   </g>
   <g id="patch_6">
    <path d="M 57.6 41.472 
L 414.72 41.472 
" style="fill:none;stroke:#000000;stroke-linecap:square;stroke-linejoin:miter;stroke-width:0.8;"/>
   </g>
   <g id="text_15">
    <!-- Initial Singular Value vs. NN-Mass ($R^2$=0.61) -->
    <defs>
     <path d="M 2.984375 54.6875 
L 12.5 54.6875 
L 29.59375 8.796875 
L 46.6875 54.6875 
L 56.203125 54.6875 
L 35.6875 0 
L 23.484375 0 
z
" id="DejaVuSans-118"/>
     <path d="M 25.203125 64.796875 
L 20.21875 38.921875 
L 32.90625 38.921875 
Q 40.375 38.921875 44.984375 43.046875 
Q 49.609375 47.171875 49.609375 53.8125 
Q 49.609375 59.125 46.5 61.953125 
Q 43.40625 64.796875 37.59375 64.796875 
z
M 43.3125 35.015625 
Q 46.4375 34.28125 48.515625 31.390625 
Q 50.59375 28.515625 53.328125 19.921875 
L 59.515625 0 
L 49.125 0 
L 43.40625 18.703125 
Q 41.21875 25.921875 38.328125 28.359375 
Q 35.453125 30.8125 29.5 30.8125 
L 18.609375 30.8125 
L 12.59375 0 
L 2.6875 0 
L 16.890625 72.90625 
L 39.109375 72.90625 
Q 49.21875 72.90625 54.609375 68.328125 
Q 60.015625 63.765625 60.015625 55.171875 
Q 60.015625 47.5625 55.421875 41.984375 
Q 50.828125 36.421875 43.3125 35.015625 
z
" id="DejaVuSans-Oblique-82"/>
     <path d="M 10.59375 45.40625 
L 73.1875 45.40625 
L 73.1875 37.203125 
L 10.59375 37.203125 
z
M 10.59375 25.484375 
L 73.1875 25.484375 
L 73.1875 17.1875 
L 10.59375 17.1875 
z
" id="DejaVuSans-61"/>
    </defs>
    <g transform="translate(58.64 35.472)scale(0.16 -0.16)">
     <use transform="translate(0 0.765625)" xlink:href="#DejaVuSans-73"/>
     <use transform="translate(29.492188 0.765625)" xlink:href="#DejaVuSans-110"/>
     <use transform="translate(92.871094 0.765625)" xlink:href="#DejaVuSans-105"/>
     <use transform="translate(120.654297 0.765625)" xlink:href="#DejaVuSans-116"/>
     <use transform="translate(159.863281 0.765625)" xlink:href="#DejaVuSans-105"/>
     <use transform="translate(187.646484 0.765625)" xlink:href="#DejaVuSans-97"/>
     <use transform="translate(248.925781 0.765625)" xlink:href="#DejaVuSans-108"/>
     <use transform="translate(276.708984 0.765625)" xlink:href="#DejaVuSans-32"/>
     <use transform="translate(308.496094 0.765625)" xlink:href="#DejaVuSans-83"/>
     <use transform="translate(371.972656 0.765625)" xlink:href="#DejaVuSans-105"/>
     <use transform="translate(399.755859 0.765625)" xlink:href="#DejaVuSans-110"/>
     <use transform="translate(463.134766 0.765625)" xlink:href="#DejaVuSans-103"/>
     <use transform="translate(526.611328 0.765625)" xlink:href="#DejaVuSans-117"/>
     <use transform="translate(589.990234 0.765625)" xlink:href="#DejaVuSans-108"/>
     <use transform="translate(617.773438 0.765625)" xlink:href="#DejaVuSans-97"/>
     <use transform="translate(679.052734 0.765625)" xlink:href="#DejaVuSans-114"/>
     <use transform="translate(720.166016 0.765625)" xlink:href="#DejaVuSans-32"/>
     <use transform="translate(751.953125 0.765625)" xlink:href="#DejaVuSans-86"/>
     <use transform="translate(820.361328 0.765625)" xlink:href="#DejaVuSans-97"/>
     <use transform="translate(881.640625 0.765625)" xlink:href="#DejaVuSans-108"/>
     <use transform="translate(909.423828 0.765625)" xlink:href="#DejaVuSans-117"/>
     <use transform="translate(972.802734 0.765625)" xlink:href="#DejaVuSans-101"/>
     <use transform="translate(1034.326172 0.765625)" xlink:href="#DejaVuSans-32"/>
     <use transform="translate(1066.113281 0.765625)" xlink:href="#DejaVuSans-118"/>
     <use transform="translate(1125.292969 0.765625)" xlink:href="#DejaVuSans-115"/>
     <use transform="translate(1177.392578 0.765625)" xlink:href="#DejaVuSans-46"/>
     <use transform="translate(1209.179688 0.765625)" xlink:href="#DejaVuSans-32"/>
     <use transform="translate(1240.966797 0.765625)" xlink:href="#DejaVuSans-78"/>
     <use transform="translate(1315.771484 0.765625)" xlink:href="#DejaVuSans-78"/>
     <use transform="translate(1390.576172 0.765625)" xlink:href="#DejaVuSans-45"/>
     <use transform="translate(1426.660156 0.765625)" xlink:href="#DejaVuSans-77"/>
     <use transform="translate(1512.939453 0.765625)" xlink:href="#DejaVuSans-97"/>
     <use transform="translate(1574.21875 0.765625)" xlink:href="#DejaVuSans-115"/>
     <use transform="translate(1626.318359 0.765625)" xlink:href="#DejaVuSans-115"/>
     <use transform="translate(1678.417969 0.765625)" xlink:href="#DejaVuSans-32"/>
     <use transform="translate(1710.205078 0.765625)" xlink:href="#DejaVuSans-40"/>
     <use transform="translate(1749.21875 0.765625)" xlink:href="#DejaVuSans-Oblique-82"/>
     <use transform="translate(1825.717943 39.046875)scale(0.7)" xlink:href="#DejaVuSans-50"/>
     <use transform="translate(1872.988451 0.765625)" xlink:href="#DejaVuSans-61"/>
     <use transform="translate(1956.777513 0.765625)" xlink:href="#DejaVuSans-48"/>
     <use transform="translate(2020.40056 0.765625)" xlink:href="#DejaVuSans-46"/>
     <use transform="translate(2052.187669 0.765625)" xlink:href="#DejaVuSans-54"/>
     <use transform="translate(2115.810716 0.765625)" xlink:href="#DejaVuSans-49"/>
     <use transform="translate(2179.433763 0.765625)" xlink:href="#DejaVuSans-41"/>
    </g>
   </g>
   <g id="legend_1">
    <g id="patch_7">
     <path d="M 242.5375 300.584 
L 404.92 300.584 
Q 407.72 300.584 407.72 297.784 
L 407.72 196.437125 
Q 407.72 193.637125 404.92 193.637125 
L 242.5375 193.637125 
Q 239.7375 193.637125 239.7375 196.437125 
L 239.7375 297.784 
Q 239.7375 300.584 242.5375 300.584 
z
" style="fill:#ffffff;opacity:0.8;stroke:#cccccc;stroke-linejoin:miter;"/>
    </g>
    <g id="line2d_30">
     <path d="M 245.3375 204.974937 
L 273.3375 204.974937 
" style="fill:none;stroke:#1f77b4;stroke-linecap:square;stroke-width:1.5;"/>
    </g>
    <g id="line2d_31">
     <g>
      <use style="fill:#1f77b4;stroke:#1f77b4;stroke-linejoin:miter;" x="259.3375" xlink:href="#mabda0b1ecd" y="204.974937"/>
     </g>
    </g>
    <g id="text_16">
     <!-- 16-layers -->
     <defs>
      <path d="M 32.171875 -5.078125 
Q 28.375 -14.84375 24.75 -17.8125 
Q 21.140625 -20.796875 15.09375 -20.796875 
L 7.90625 -20.796875 
L 7.90625 -13.28125 
L 13.1875 -13.28125 
Q 16.890625 -13.28125 18.9375 -11.515625 
Q 21 -9.765625 23.484375 -3.21875 
L 25.09375 0.875 
L 2.984375 54.6875 
L 12.5 54.6875 
L 29.59375 11.921875 
L 46.6875 54.6875 
L 56.203125 54.6875 
z
" id="DejaVuSans-121"/>
     </defs>
     <g transform="translate(284.5375 209.874937)scale(0.14 -0.14)">
      <use xlink:href="#DejaVuSans-49"/>
      <use x="63.623047" xlink:href="#DejaVuSans-54"/>
      <use x="127.246094" xlink:href="#DejaVuSans-45"/>
      <use x="163.330078" xlink:href="#DejaVuSans-108"/>
      <use x="191.113281" xlink:href="#DejaVuSans-97"/>
      <use x="252.392578" xlink:href="#DejaVuSans-121"/>
      <use x="311.572266" xlink:href="#DejaVuSans-101"/>
      <use x="373.095703" xlink:href="#DejaVuSans-114"/>
      <use x="414.208984" xlink:href="#DejaVuSans-115"/>
     </g>
    </g>
    <g id="line2d_32">
     <path d="M 245.3375 225.524312 
L 273.3375 225.524312 
" style="fill:none;stroke:#ff7f0e;stroke-linecap:square;stroke-width:1.5;"/>
    </g>
    <g id="line2d_33">
     <g>
      <use style="fill:#ff7f0e;stroke:#ff7f0e;" x="259.3375" xlink:href="#mea41d2cd1f" y="225.524312"/>
     </g>
    </g>
    <g id="text_17">
     <!-- 20-layers -->
     <g transform="translate(284.5375 230.424312)scale(0.14 -0.14)">
      <use xlink:href="#DejaVuSans-50"/>
      <use x="63.623047" xlink:href="#DejaVuSans-48"/>
      <use x="127.246094" xlink:href="#DejaVuSans-45"/>
      <use x="163.330078" xlink:href="#DejaVuSans-108"/>
      <use x="191.113281" xlink:href="#DejaVuSans-97"/>
      <use x="252.392578" xlink:href="#DejaVuSans-121"/>
      <use x="311.572266" xlink:href="#DejaVuSans-101"/>
      <use x="373.095703" xlink:href="#DejaVuSans-114"/>
      <use x="414.208984" xlink:href="#DejaVuSans-115"/>
     </g>
    </g>
    <g id="line2d_34">
     <path d="M 245.3375 246.073687 
L 273.3375 246.073687 
" style="fill:none;stroke:#2ca02c;stroke-linecap:square;stroke-width:1.5;"/>
    </g>
    <g id="line2d_35">
     <g>
      <use style="fill:#2ca02c;stroke:#2ca02c;stroke-linejoin:miter;" x="259.3375" xlink:href="#mfd1db955f6" y="246.073687"/>
     </g>
    </g>
    <g id="text_18">
     <!-- 24-layers -->
     <g transform="translate(284.5375 250.973687)scale(0.14 -0.14)">
      <use xlink:href="#DejaVuSans-50"/>
      <use x="63.623047" xlink:href="#DejaVuSans-52"/>
      <use x="127.246094" xlink:href="#DejaVuSans-45"/>
      <use x="163.330078" xlink:href="#DejaVuSans-108"/>
      <use x="191.113281" xlink:href="#DejaVuSans-97"/>
      <use x="252.392578" xlink:href="#DejaVuSans-121"/>
      <use x="311.572266" xlink:href="#DejaVuSans-101"/>
      <use x="373.095703" xlink:href="#DejaVuSans-114"/>
      <use x="414.208984" xlink:href="#DejaVuSans-115"/>
     </g>
    </g>
    <g id="line2d_36">
     <path d="M 245.3375 266.623063 
L 273.3375 266.623063 
" style="fill:none;stroke:#d62728;stroke-linecap:square;stroke-width:1.5;"/>
    </g>
    <g id="line2d_37">
     <g>
      <use style="fill:#d62728;stroke:#d62728;stroke-linejoin:miter;" x="259.3375" xlink:href="#m205595f08d" y="266.623063"/>
     </g>
    </g>
    <g id="text_19">
     <!-- 28-layers -->
     <g transform="translate(284.5375 271.523062)scale(0.14 -0.14)">
      <use xlink:href="#DejaVuSans-50"/>
      <use x="63.623047" xlink:href="#DejaVuSans-56"/>
      <use x="127.246094" xlink:href="#DejaVuSans-45"/>
      <use x="163.330078" xlink:href="#DejaVuSans-108"/>
      <use x="191.113281" xlink:href="#DejaVuSans-97"/>
      <use x="252.392578" xlink:href="#DejaVuSans-121"/>
      <use x="311.572266" xlink:href="#DejaVuSans-101"/>
      <use x="373.095703" xlink:href="#DejaVuSans-114"/>
      <use x="414.208984" xlink:href="#DejaVuSans-115"/>
     </g>
    </g>
    <g id="line2d_38"/>
    <g id="line2d_39">
     <g>
      <use style="fill:#9467bd;stroke:#9467bd;stroke-linejoin:miter;" x="259.3375" xlink:href="#m94a994347e" y="287.172438"/>
     </g>
    </g>
    <g id="text_20">
     <!-- linear regression -->
     <defs>
      <path d="M 30.609375 48.390625 
Q 23.390625 48.390625 19.1875 42.75 
Q 14.984375 37.109375 14.984375 27.296875 
Q 14.984375 17.484375 19.15625 11.84375 
Q 23.34375 6.203125 30.609375 6.203125 
Q 37.796875 6.203125 41.984375 11.859375 
Q 46.1875 17.53125 46.1875 27.296875 
Q 46.1875 37.015625 41.984375 42.703125 
Q 37.796875 48.390625 30.609375 48.390625 
z
M 30.609375 56 
Q 42.328125 56 49.015625 48.375 
Q 55.71875 40.765625 55.71875 27.296875 
Q 55.71875 13.875 49.015625 6.21875 
Q 42.328125 -1.421875 30.609375 -1.421875 
Q 18.84375 -1.421875 12.171875 6.21875 
Q 5.515625 13.875 5.515625 27.296875 
Q 5.515625 40.765625 12.171875 48.375 
Q 18.84375 56 30.609375 56 
z
" id="DejaVuSans-111"/>
     </defs>
     <g transform="translate(284.5375 292.072437)scale(0.14 -0.14)">
      <use xlink:href="#DejaVuSans-108"/>
      <use x="27.783203" xlink:href="#DejaVuSans-105"/>
      <use x="55.566406" xlink:href="#DejaVuSans-110"/>
      <use x="118.945312" xlink:href="#DejaVuSans-101"/>
      <use x="180.46875" xlink:href="#DejaVuSans-97"/>
      <use x="241.748047" xlink:href="#DejaVuSans-114"/>
      <use x="282.861328" xlink:href="#DejaVuSans-32"/>
      <use x="314.648438" xlink:href="#DejaVuSans-114"/>
      <use x="355.730469" xlink:href="#DejaVuSans-101"/>
      <use x="417.253906" xlink:href="#DejaVuSans-103"/>
      <use x="480.730469" xlink:href="#DejaVuSans-114"/>
      <use x="521.8125" xlink:href="#DejaVuSans-101"/>
      <use x="583.335938" xlink:href="#DejaVuSans-115"/>
      <use x="635.435547" xlink:href="#DejaVuSans-115"/>
      <use x="687.535156" xlink:href="#DejaVuSans-105"/>
      <use x="715.318359" xlink:href="#DejaVuSans-111"/>
      <use x="776.5" xlink:href="#DejaVuSans-110"/>
     </g>
    </g>
   </g>
  </g>
 </g>
 <defs>
  <clipPath id="p5a5157184f">
   <rect height="266.112" width="357.12" x="57.6" y="41.472"/>
  </clipPath>
 </defs>
</svg>
